<mxfile host="app.diagrams.net" agent="Mozilla/5.0 (Windows NT 10.0; Win64; x64) AppleWebKit/537.36 (KHTML, like Gecko) Chrome/130.0.0.0 Safari/537.36" version="24.8.3">
  <diagram name="Use Case Diagram" id="sp7ULdwe1vW28wdE-9KY">
    <mxGraphModel dx="1195" dy="643" grid="1" gridSize="10" guides="1" tooltips="1" connect="1" arrows="1" fold="1" page="1" pageScale="1" pageWidth="827" pageHeight="1169" math="0" shadow="0">
      <root>
        <mxCell id="0" />
        <mxCell id="1" parent="0" />
        <mxCell id="4FkFt35sPJPn3TeDCr3a-2" value="" style="rounded=0;whiteSpace=wrap;html=1;fillColor=none;" vertex="1" parent="1">
          <mxGeometry x="130" y="150" width="660" height="530" as="geometry" />
        </mxCell>
        <mxCell id="4FkFt35sPJPn3TeDCr3a-18" style="edgeStyle=orthogonalEdgeStyle;rounded=0;orthogonalLoop=1;jettySize=auto;html=1;exitX=0.5;exitY=0.5;exitDx=0;exitDy=0;exitPerimeter=0;" edge="1" parent="1" source="4FkFt35sPJPn3TeDCr3a-3" target="4FkFt35sPJPn3TeDCr3a-9">
          <mxGeometry relative="1" as="geometry" />
        </mxCell>
        <mxCell id="4FkFt35sPJPn3TeDCr3a-3" value="Administrador" style="shape=umlActor;verticalLabelPosition=bottom;verticalAlign=top;html=1;outlineConnect=0;" vertex="1" parent="1">
          <mxGeometry x="50" y="200" width="30" height="60" as="geometry" />
        </mxCell>
        <mxCell id="4FkFt35sPJPn3TeDCr3a-23" style="edgeStyle=orthogonalEdgeStyle;rounded=0;orthogonalLoop=1;jettySize=auto;html=1;exitX=0.5;exitY=0.5;exitDx=0;exitDy=0;exitPerimeter=0;" edge="1" parent="1" source="4FkFt35sPJPn3TeDCr3a-4" target="4FkFt35sPJPn3TeDCr3a-21">
          <mxGeometry relative="1" as="geometry" />
        </mxCell>
        <mxCell id="4FkFt35sPJPn3TeDCr3a-4" value="Coordenador" style="shape=umlActor;verticalLabelPosition=bottom;verticalAlign=top;html=1;outlineConnect=0;" vertex="1" parent="1">
          <mxGeometry x="50" y="370" width="30" height="60" as="geometry" />
        </mxCell>
        <mxCell id="4FkFt35sPJPn3TeDCr3a-24" style="edgeStyle=orthogonalEdgeStyle;rounded=0;orthogonalLoop=1;jettySize=auto;html=1;exitX=0.5;exitY=0.5;exitDx=0;exitDy=0;exitPerimeter=0;" edge="1" parent="1" source="4FkFt35sPJPn3TeDCr3a-5" target="4FkFt35sPJPn3TeDCr3a-22">
          <mxGeometry relative="1" as="geometry" />
        </mxCell>
        <mxCell id="4FkFt35sPJPn3TeDCr3a-5" value="Funcionário" style="shape=umlActor;verticalLabelPosition=bottom;verticalAlign=top;html=1;outlineConnect=0;" vertex="1" parent="1">
          <mxGeometry x="50" y="530" width="30" height="60" as="geometry" />
        </mxCell>
        <mxCell id="4FkFt35sPJPn3TeDCr3a-9" value="Fazer Login" style="ellipse;whiteSpace=wrap;html=1;" vertex="1" parent="1">
          <mxGeometry x="220" y="202.5" width="80" height="55" as="geometry" />
        </mxCell>
        <mxCell id="4FkFt35sPJPn3TeDCr3a-21" value="Fazer Login" style="ellipse;whiteSpace=wrap;html=1;" vertex="1" parent="1">
          <mxGeometry x="220" y="372.5" width="80" height="55" as="geometry" />
        </mxCell>
        <mxCell id="4FkFt35sPJPn3TeDCr3a-22" value="Fazer Login" style="ellipse;whiteSpace=wrap;html=1;" vertex="1" parent="1">
          <mxGeometry x="220" y="532.5" width="80" height="55" as="geometry" />
        </mxCell>
        <mxCell id="4FkFt35sPJPn3TeDCr3a-25" value="Autenticar" style="ellipse;whiteSpace=wrap;html=1;" vertex="1" parent="1">
          <mxGeometry x="130" y="430" width="80" height="55" as="geometry" />
        </mxCell>
        <mxCell id="4FkFt35sPJPn3TeDCr3a-33" value="Dashboard&lt;div&gt;Admin&lt;/div&gt;" style="ellipse;whiteSpace=wrap;html=1;" vertex="1" parent="1">
          <mxGeometry x="334" y="160" width="66" height="45" as="geometry" />
        </mxCell>
        <mxCell id="4FkFt35sPJPn3TeDCr3a-34" value="" style="endArrow=none;dashed=1;html=1;rounded=0;entryX=0;entryY=0.5;entryDx=0;entryDy=0;exitX=0.5;exitY=0;exitDx=0;exitDy=0;" edge="1" parent="1" source="4FkFt35sPJPn3TeDCr3a-9" target="4FkFt35sPJPn3TeDCr3a-33">
          <mxGeometry width="50" height="50" relative="1" as="geometry">
            <mxPoint x="480" y="440" as="sourcePoint" />
            <mxPoint x="530" y="390" as="targetPoint" />
            <Array as="points">
              <mxPoint x="260" y="183" />
            </Array>
          </mxGeometry>
        </mxCell>
        <mxCell id="4FkFt35sPJPn3TeDCr3a-35" value="" style="endArrow=none;dashed=1;html=1;rounded=0;entryX=0.5;entryY=1;entryDx=0;entryDy=0;exitX=0.5;exitY=0;exitDx=0;exitDy=0;" edge="1" parent="1" source="4FkFt35sPJPn3TeDCr3a-25" target="4FkFt35sPJPn3TeDCr3a-9">
          <mxGeometry width="50" height="50" relative="1" as="geometry">
            <mxPoint x="480" y="440" as="sourcePoint" />
            <mxPoint x="530" y="390" as="targetPoint" />
            <Array as="points">
              <mxPoint x="170" y="280" />
              <mxPoint x="260" y="280" />
            </Array>
          </mxGeometry>
        </mxCell>
        <mxCell id="4FkFt35sPJPn3TeDCr3a-36" value="" style="endArrow=none;dashed=1;html=1;rounded=0;exitX=0.5;exitY=0;exitDx=0;exitDy=0;entryX=0.5;entryY=1;entryDx=0;entryDy=0;" edge="1" parent="1" source="4FkFt35sPJPn3TeDCr3a-22" target="4FkFt35sPJPn3TeDCr3a-25">
          <mxGeometry width="50" height="50" relative="1" as="geometry">
            <mxPoint x="480" y="440" as="sourcePoint" />
            <mxPoint x="530" y="390" as="targetPoint" />
            <Array as="points">
              <mxPoint x="260" y="520" />
              <mxPoint x="170" y="520" />
            </Array>
          </mxGeometry>
        </mxCell>
        <mxCell id="4FkFt35sPJPn3TeDCr3a-37" value="" style="endArrow=none;dashed=1;html=1;rounded=0;exitX=1;exitY=0.5;exitDx=0;exitDy=0;entryX=0.5;entryY=1;entryDx=0;entryDy=0;" edge="1" parent="1" source="4FkFt35sPJPn3TeDCr3a-25" target="4FkFt35sPJPn3TeDCr3a-21">
          <mxGeometry width="50" height="50" relative="1" as="geometry">
            <mxPoint x="460" y="440" as="sourcePoint" />
            <mxPoint x="510" y="390" as="targetPoint" />
            <Array as="points">
              <mxPoint x="260" y="457" />
            </Array>
          </mxGeometry>
        </mxCell>
        <mxCell id="4FkFt35sPJPn3TeDCr3a-38" value="Cadastrar&lt;div&gt;Usuários&lt;/div&gt;" style="ellipse;whiteSpace=wrap;html=1;" vertex="1" parent="1">
          <mxGeometry x="474" y="157.5" width="66" height="45" as="geometry" />
        </mxCell>
        <mxCell id="4FkFt35sPJPn3TeDCr3a-39" value="" style="endArrow=none;dashed=1;html=1;rounded=0;entryX=1;entryY=0.5;entryDx=0;entryDy=0;exitX=0;exitY=0.5;exitDx=0;exitDy=0;" edge="1" parent="1" source="4FkFt35sPJPn3TeDCr3a-38" target="4FkFt35sPJPn3TeDCr3a-33">
          <mxGeometry width="50" height="50" relative="1" as="geometry">
            <mxPoint x="460" y="440" as="sourcePoint" />
            <mxPoint x="510" y="390" as="targetPoint" />
          </mxGeometry>
        </mxCell>
        <mxCell id="4FkFt35sPJPn3TeDCr3a-40" value="Acessar&lt;div&gt;Periodos&lt;/div&gt;" style="ellipse;whiteSpace=wrap;html=1;" vertex="1" parent="1">
          <mxGeometry x="550" y="190" width="66" height="45" as="geometry" />
        </mxCell>
        <mxCell id="4FkFt35sPJPn3TeDCr3a-41" value="" style="endArrow=none;dashed=1;html=1;rounded=0;entryX=1;entryY=1;entryDx=0;entryDy=0;exitX=0;exitY=0.5;exitDx=0;exitDy=0;" edge="1" parent="1" source="4FkFt35sPJPn3TeDCr3a-40" target="4FkFt35sPJPn3TeDCr3a-33">
          <mxGeometry width="50" height="50" relative="1" as="geometry">
            <mxPoint x="460" y="495" as="sourcePoint" />
            <mxPoint x="400" y="238" as="targetPoint" />
          </mxGeometry>
        </mxCell>
        <mxCell id="4FkFt35sPJPn3TeDCr3a-42" value="Acessar&lt;div&gt;Relatórios&lt;/div&gt;" style="ellipse;whiteSpace=wrap;html=1;" vertex="1" parent="1">
          <mxGeometry x="540" y="240" width="66" height="45" as="geometry" />
        </mxCell>
        <mxCell id="4FkFt35sPJPn3TeDCr3a-43" value="" style="endArrow=none;dashed=1;html=1;rounded=0;entryX=0;entryY=0;entryDx=0;entryDy=0;exitX=0.696;exitY=0.975;exitDx=0;exitDy=0;exitPerimeter=0;" edge="1" parent="1" source="4FkFt35sPJPn3TeDCr3a-33" target="4FkFt35sPJPn3TeDCr3a-42">
          <mxGeometry width="50" height="50" relative="1" as="geometry">
            <mxPoint x="460" y="440" as="sourcePoint" />
            <mxPoint x="510" y="390" as="targetPoint" />
          </mxGeometry>
        </mxCell>
        <mxCell id="4FkFt35sPJPn3TeDCr3a-44" value="Cadastrar&lt;div&gt;Times e&lt;/div&gt;&lt;div&gt;Organizações&lt;/div&gt;" style="ellipse;whiteSpace=wrap;html=1;" vertex="1" parent="1">
          <mxGeometry x="450" y="270" width="100" height="60" as="geometry" />
        </mxCell>
        <mxCell id="4FkFt35sPJPn3TeDCr3a-45" value="" style="endArrow=none;dashed=1;html=1;rounded=0;entryX=0.5;entryY=1;entryDx=0;entryDy=0;" edge="1" parent="1" source="4FkFt35sPJPn3TeDCr3a-44" target="4FkFt35sPJPn3TeDCr3a-33">
          <mxGeometry width="50" height="50" relative="1" as="geometry">
            <mxPoint x="460" y="440" as="sourcePoint" />
            <mxPoint x="510" y="390" as="targetPoint" />
          </mxGeometry>
        </mxCell>
        <mxCell id="4FkFt35sPJPn3TeDCr3a-46" value="Auditoria" style="ellipse;whiteSpace=wrap;html=1;" vertex="1" parent="1">
          <mxGeometry x="360" y="270" width="66" height="45" as="geometry" />
        </mxCell>
        <mxCell id="4FkFt35sPJPn3TeDCr3a-47" value="" style="endArrow=none;dashed=1;html=1;rounded=0;entryX=0;entryY=1;entryDx=0;entryDy=0;exitX=0.5;exitY=0;exitDx=0;exitDy=0;" edge="1" parent="1" source="4FkFt35sPJPn3TeDCr3a-46" target="4FkFt35sPJPn3TeDCr3a-33">
          <mxGeometry width="50" height="50" relative="1" as="geometry">
            <mxPoint x="460" y="440" as="sourcePoint" />
            <mxPoint x="510" y="390" as="targetPoint" />
          </mxGeometry>
        </mxCell>
        <mxCell id="4FkFt35sPJPn3TeDCr3a-48" value="Dashboard&lt;div&gt;para bater&lt;/div&gt;&lt;div&gt;ponto&lt;/div&gt;" style="ellipse;whiteSpace=wrap;html=1;" vertex="1" parent="1">
          <mxGeometry x="334" y="370" width="92" height="52.5" as="geometry" />
        </mxCell>
        <mxCell id="4FkFt35sPJPn3TeDCr3a-52" value="" style="endArrow=none;dashed=1;html=1;rounded=0;entryX=1;entryY=0.5;entryDx=0;entryDy=0;exitX=0.015;exitY=0.592;exitDx=0;exitDy=0;exitPerimeter=0;" edge="1" parent="1" source="4FkFt35sPJPn3TeDCr3a-48" target="4FkFt35sPJPn3TeDCr3a-21">
          <mxGeometry width="50" height="50" relative="1" as="geometry">
            <mxPoint x="460" y="440" as="sourcePoint" />
            <mxPoint x="510" y="390" as="targetPoint" />
          </mxGeometry>
        </mxCell>
        <mxCell id="4FkFt35sPJPn3TeDCr3a-53" value="Histórico de&lt;div&gt;ponto&lt;/div&gt;" style="ellipse;whiteSpace=wrap;html=1;" vertex="1" parent="1">
          <mxGeometry x="450" y="372.5" width="80" height="47.5" as="geometry" />
        </mxCell>
        <mxCell id="4FkFt35sPJPn3TeDCr3a-54" value="" style="endArrow=none;dashed=1;html=1;rounded=0;exitX=1;exitY=0.5;exitDx=0;exitDy=0;entryX=0;entryY=0.5;entryDx=0;entryDy=0;" edge="1" parent="1" source="4FkFt35sPJPn3TeDCr3a-48" target="4FkFt35sPJPn3TeDCr3a-53">
          <mxGeometry width="50" height="50" relative="1" as="geometry">
            <mxPoint x="460" y="440" as="sourcePoint" />
            <mxPoint x="510" y="390" as="targetPoint" />
          </mxGeometry>
        </mxCell>
        <mxCell id="4FkFt35sPJPn3TeDCr3a-55" value="Acessar&lt;div&gt;Periodos&lt;/div&gt;" style="ellipse;whiteSpace=wrap;html=1;" vertex="1" parent="1">
          <mxGeometry x="490" y="427.5" width="66" height="45" as="geometry" />
        </mxCell>
        <mxCell id="4FkFt35sPJPn3TeDCr3a-56" value="Acessar&lt;div&gt;Solicitações&lt;/div&gt;" style="ellipse;whiteSpace=wrap;html=1;" vertex="1" parent="1">
          <mxGeometry x="424" y="472.5" width="66" height="45" as="geometry" />
        </mxCell>
        <mxCell id="4FkFt35sPJPn3TeDCr3a-58" value="Acessar&lt;div&gt;Relatórios&lt;/div&gt;" style="ellipse;whiteSpace=wrap;html=1;" vertex="1" parent="1">
          <mxGeometry x="334" y="450" width="66" height="45" as="geometry" />
        </mxCell>
        <mxCell id="4FkFt35sPJPn3TeDCr3a-59" value="" style="endArrow=none;dashed=1;html=1;rounded=0;entryX=1;entryY=1;entryDx=0;entryDy=0;exitX=0;exitY=0.5;exitDx=0;exitDy=0;" edge="1" parent="1" source="4FkFt35sPJPn3TeDCr3a-55" target="4FkFt35sPJPn3TeDCr3a-48">
          <mxGeometry width="50" height="50" relative="1" as="geometry">
            <mxPoint x="460" y="440" as="sourcePoint" />
            <mxPoint x="510" y="390" as="targetPoint" />
          </mxGeometry>
        </mxCell>
        <mxCell id="4FkFt35sPJPn3TeDCr3a-60" value="" style="endArrow=none;dashed=1;html=1;rounded=0;exitX=0;exitY=0;exitDx=0;exitDy=0;entryX=0.5;entryY=1;entryDx=0;entryDy=0;" edge="1" parent="1" source="4FkFt35sPJPn3TeDCr3a-56" target="4FkFt35sPJPn3TeDCr3a-48">
          <mxGeometry width="50" height="50" relative="1" as="geometry">
            <mxPoint x="460" y="440" as="sourcePoint" />
            <mxPoint x="510" y="390" as="targetPoint" />
          </mxGeometry>
        </mxCell>
        <mxCell id="4FkFt35sPJPn3TeDCr3a-61" value="" style="endArrow=none;dashed=1;html=1;rounded=0;exitX=0;exitY=0;exitDx=0;exitDy=0;entryX=0;entryY=1;entryDx=0;entryDy=0;" edge="1" parent="1" source="4FkFt35sPJPn3TeDCr3a-58" target="4FkFt35sPJPn3TeDCr3a-48">
          <mxGeometry width="50" height="50" relative="1" as="geometry">
            <mxPoint x="460" y="440" as="sourcePoint" />
            <mxPoint x="510" y="390" as="targetPoint" />
          </mxGeometry>
        </mxCell>
        <mxCell id="4FkFt35sPJPn3TeDCr3a-62" value="Dashboard&lt;div&gt;para bater&lt;/div&gt;&lt;div&gt;ponto&lt;/div&gt;" style="ellipse;whiteSpace=wrap;html=1;" vertex="1" parent="1">
          <mxGeometry x="332" y="533.75" width="92" height="52.5" as="geometry" />
        </mxCell>
        <mxCell id="4FkFt35sPJPn3TeDCr3a-63" value="Abrir solicitação" style="ellipse;whiteSpace=wrap;html=1;" vertex="1" parent="1">
          <mxGeometry x="570" y="360" width="80" height="47.5" as="geometry" />
        </mxCell>
        <mxCell id="4FkFt35sPJPn3TeDCr3a-64" value="" style="endArrow=none;dashed=1;html=1;rounded=0;entryX=0;entryY=0.5;entryDx=0;entryDy=0;exitX=1;exitY=0.5;exitDx=0;exitDy=0;" edge="1" parent="1" source="4FkFt35sPJPn3TeDCr3a-53" target="4FkFt35sPJPn3TeDCr3a-63">
          <mxGeometry width="50" height="50" relative="1" as="geometry">
            <mxPoint x="460" y="440" as="sourcePoint" />
            <mxPoint x="510" y="390" as="targetPoint" />
          </mxGeometry>
        </mxCell>
        <mxCell id="4FkFt35sPJPn3TeDCr3a-65" value="" style="endArrow=none;dashed=1;html=1;rounded=0;exitX=1;exitY=0.5;exitDx=0;exitDy=0;entryX=0;entryY=0.5;entryDx=0;entryDy=0;" edge="1" parent="1" source="4FkFt35sPJPn3TeDCr3a-22" target="4FkFt35sPJPn3TeDCr3a-62">
          <mxGeometry width="50" height="50" relative="1" as="geometry">
            <mxPoint x="460" y="440" as="sourcePoint" />
            <mxPoint x="510" y="390" as="targetPoint" />
          </mxGeometry>
        </mxCell>
        <mxCell id="4FkFt35sPJPn3TeDCr3a-66" value="Histórico de&lt;div&gt;ponto&lt;/div&gt;" style="ellipse;whiteSpace=wrap;html=1;" vertex="1" parent="1">
          <mxGeometry x="460" y="536.25" width="80" height="47.5" as="geometry" />
        </mxCell>
        <mxCell id="4FkFt35sPJPn3TeDCr3a-67" value="Abrir solicitação" style="ellipse;whiteSpace=wrap;html=1;" vertex="1" parent="1">
          <mxGeometry x="580" y="536.25" width="80" height="47.5" as="geometry" />
        </mxCell>
        <mxCell id="4FkFt35sPJPn3TeDCr3a-68" value="" style="endArrow=none;dashed=1;html=1;rounded=0;exitX=1;exitY=0.5;exitDx=0;exitDy=0;entryX=0;entryY=0.5;entryDx=0;entryDy=0;" edge="1" parent="1" source="4FkFt35sPJPn3TeDCr3a-62" target="4FkFt35sPJPn3TeDCr3a-66">
          <mxGeometry width="50" height="50" relative="1" as="geometry">
            <mxPoint x="460" y="440" as="sourcePoint" />
            <mxPoint x="510" y="390" as="targetPoint" />
          </mxGeometry>
        </mxCell>
        <mxCell id="4FkFt35sPJPn3TeDCr3a-69" value="" style="endArrow=none;dashed=1;html=1;rounded=0;exitX=1;exitY=0.5;exitDx=0;exitDy=0;entryX=0;entryY=0.5;entryDx=0;entryDy=0;" edge="1" parent="1" source="4FkFt35sPJPn3TeDCr3a-66" target="4FkFt35sPJPn3TeDCr3a-67">
          <mxGeometry width="50" height="50" relative="1" as="geometry">
            <mxPoint x="544" y="559.66" as="sourcePoint" />
            <mxPoint x="580" y="559.66" as="targetPoint" />
          </mxGeometry>
        </mxCell>
      </root>
    </mxGraphModel>
  </diagram>
</mxfile>
